<?xml version="1.0" encoding="UTF-8" standalone="no"?>
<!-- Created with Inkscape (http://www.inkscape.org/) -->

<svg
   width="8in"
   height="8in"
   viewBox="0 0 203.2 203.2"
   version="1.1"
   id="svg6138"
   inkscape:version="1.1 (c68e22c387, 2021-05-23)"
   sodipodi:docname="jwalk_logo_animation_f2.svg"
   xmlns:inkscape="http://www.inkscape.org/namespaces/inkscape"
   xmlns:sodipodi="http://sodipodi.sourceforge.net/DTD/sodipodi-0.dtd"
   xmlns="http://www.w3.org/2000/svg"
   xmlns:svg="http://www.w3.org/2000/svg">
  <sodipodi:namedview
     id="namedview6140"
     pagecolor="#ffffff"
     bordercolor="#666666"
     borderopacity="1.0"
     inkscape:pageshadow="2"
     inkscape:pageopacity="0.0"
     inkscape:pagecheckerboard="true"
     inkscape:document-units="mm"
     showgrid="false"
     inkscape:zoom="1.4142136"
     inkscape:cx="312.18764"
     inkscape:cy="437.69909"
     inkscape:window-width="1788"
     inkscape:window-height="1368"
     inkscape:window-x="1081"
     inkscape:window-y="1080"
     inkscape:window-maximized="0"
     inkscape:current-layer="g1907"
     units="in"
     width="8in" />
  <defs
     id="defs6135" />
  <g
     inkscape:groupmode="layer"
     id="g1907"
     inkscape:label="j path copy"
     style="display:inline">
    <path
       style="fill:none;stroke:#000000;stroke-width:0.264583px;stroke-linecap:butt;stroke-linejoin:miter;stroke-opacity:1"
       d="M 49.159794,100.19072 Z"
       id="path1903" />
    <path
       style="fill:none;stroke:#fcc82f;stroke-width:30;stroke-linecap:butt;stroke-linejoin:miter;stroke-miterlimit:4;stroke-dasharray:none;stroke-opacity:1"
       d="M 99.510305,22.665335 98.87138,132.15946 C 96.070389,162.1536 57.076263,180.8859 26.536084,149.5433"
       id="path1905"
       sodipodi:nodetypes="ccc" />
  </g>
  <g
     inkscape:groupmode="layer"
     id="layer3"
     inkscape:label="guy walking 2"
     style="display:inline">
    <g
       id="g3688"
       transform="translate(-39.59136,-22.839355)">
      <g
         id="layer10-9"
         inkscape:label="back arm"
         style="display:inline">
        <path
           style="display:inline;opacity:1;fill:#000000;fill-opacity:1;stroke-width:0.0947904"
           d="m 178.87756,89.989803 c 2.08701,1.713646 2.92848,4.389544 3.47915,11.063777 0.41141,4.98657 1.84996,19.38275 2.22908,22.30758 l 0.0923,0.71237 5.29795,5.43571 c 2.91387,2.98964 6.7939,6.9696 8.62229,8.84432 3.54368,3.63353 3.77223,3.91633 4.24405,5.25156 1.1129,3.14946 -0.47314,6.3216 -3.35104,6.70218 -1.65292,0.21859 -3.86985,-0.61527 -5.96388,-2.2432 -0.66981,-0.52073 -6.80413,-6.324 -11.34653,-10.73419 -6.57031,-6.37908 -6.08422,-6.31705 -7.73085,-10.27403 -2.15416,-5.17655 -1.88218,-11.06524 -2.40716,-16.64747 -0.43578,-4.63358 -0.6133,-13.948592 -0.6133,-13.948592 z"
           id="path19215-8"
           sodipodi:nodetypes="csscssssssaacc"
           inkscape:transform-center-x="-12.727941"
           inkscape:transform-center-y="30.817053" />
      </g>
      <g
         id="layer6-1"
         inkscape:label="back leg"
         style="display:inline">
        <path
           style="display:inline;opacity:1;fill:#000000;fill-opacity:1;stroke-width:0.0947904"
           d="m 170.13412,175.26006 c -1.45427,1.28122 -6.82407,3.67877 -8.75901,4.76253 -1.66188,0.93083 -4.28408,2.44969 -9.40824,5.44957 -8.17148,4.78389 -10.5385,6.0694 -12.99078,7.0552 -3.12273,1.25532 -5.50537,1.38124 -7.12656,0.37667 -1.14926,-0.7122 -2.29397,-2.19782 -2.7709,-3.59632 -0.87558,-2.56735 -0.0557,-4.78642 2.61597,-7.07993 1.00928,-0.86643 1.82456,-1.39535 14.44629,-9.37202 l 10.88236,-6.87744 z"
           id="path8338"
           sodipodi:nodetypes="cssssssscc"
           inkscape:transform-center-x="17.457423"
           inkscape:transform-center-y="13.400276" />
        <path
           style="display:inline;opacity:1;fill:#000000;fill-opacity:1;stroke-width:0.0947904"
           d="m 156.27335,172.57629 -0.21993,-10.34806 c -0.12096,-5.69144 -0.20221,-10.38333 -0.18058,-10.42643 0.0217,-0.0431 3.43854,2.49054 7.59308,5.63031 l 7.55372,5.70866 -0.25522,4.2577 c -0.23496,3.9198 -0.38666,6.17265 -0.6303,7.86159 z"
           id="path15962-9"
           sodipodi:nodetypes="cssscscc"
           inkscape:transform-center-x="0.9938451"
           inkscape:transform-center-y="21.289398" />
      </g>
      <g
         id="layer3-7"
         inkscape:label="front leg">
        <path
           style="display:inline;fill:#000000;fill-opacity:1;stroke:#ffffff;stroke-width:8;stroke-miterlimit:4;stroke-dasharray:none;stroke-opacity:1;paint-order:stroke markers fill"
           d="m 184.20522,197.89935 c -1.09917,0.78731 -2.90633,1.49766 -4.38506,1.17589 -2.72796,-0.5936 -6.12088,-2.84115 -6.45677,-5.33454 l -3.99255,-24.79336 -9.23473,-23.50498 16.65546,-5.34871 7.63336,26.95795 3.56061,24.25606 c -0.0413,3.36534 -2.22981,5.48109 -3.78031,6.59167 z"
           id="path15962-0"
           sodipodi:nodetypes="sascccccss"
           inkscape:transform-center-x="-3.6170642"
           inkscape:transform-center-y="33.514125" />
      </g>
      <g
         id="layer2-5"
         inkscape:label="body stroke"
         style="display:inline">
        <path
           style="color:#000000;display:inline;fill:#ffffff;-inkscape-stroke:none;paint-order:stroke markers fill"
           d="m 175.36877,83.920554 c -3.61655,-0.225391 -7.33831,0.736828 -10.34375,3.234375 -3.98907,3.314957 -5.41266,8.303178 -6.58594,12.587891 -1.17328,4.28471 -1.67578,7.99805 -1.67578,7.99805 l -0.006,0.0449 c -0.004,0.0251 -0.007,0.0375 -0.0176,0.0918 -0.032,0.17077 -0.0869,0.45091 -0.15625,0.79492 -0.13867,0.688 -0.33711,1.6454 -0.55859,2.6875 -0.8135,3.82744 -2.15329,10.2643 -3.47657,16.70117 l -0.77343,3.76563 0.002,2.25781 c 0.004,4.35456 0.42825,6.52444 4.08799,12.18667 l 25.61616,-8.1582 c 1.2822,-5.85549 2.85794,-11.85835 4.02046,-17.47964 0.75699,-3.69135 2.24872,-8.40903 3.37304,-12.99219 1.12432,-4.58316 2.19507,-8.962943 0.76172,-13.337893 -1.67221,-5.104033 -6.018,-8.443599 -10.7168,-9.773437 -1.15145,-0.32588 -2.34526,-0.534245 -3.55078,-0.609375 z m -2.20703,8.210937 c 1.22484,-0.205079 2.5423,-0.198006 3.58008,0.0957 2.19514,0.621262 4.7345,2.861824 5.29297,4.566406 0.33025,1.008008 0.10046,4.744073 -0.92969,8.943363 -1.03015,4.19928 -2.54574,8.93105 -3.43945,13.28906 -0.67339,3.28367 -1.87545,8.34092 -2.89649,12.54297 -0.51051,2.10103 -0.97636,3.99322 -1.31445,5.3711 -0.008,0.0327 -0.0117,0.046 -0.0195,0.0781 l -11.44336,3.69141 c -1.58735,-2.67365 -2.21234,-4.21085 -2.21485,-6.63281 l -0.002,-1.43946 0.60938,-2.96484 c 1.3206,-6.42388 2.66114,-12.85788 3.46679,-16.64844 0.22635,-1.06498 0.42923,-2.04247 0.57618,-2.77149 0.0735,-0.36451 0.13138,-0.66343 0.17578,-0.90039 0.0222,-0.11848 0.0398,-0.21693 0.0586,-0.33203 0.008,-0.0491 0.0164,-0.11059 0.0273,-0.19531 0,0 0.004,-0.0156 0.004,-0.0156 0.001,-0.008 8.8e-4,-0.009 0.002,-0.0176 0.004,-0.0306 0.44909,-3.24039 1.46093,-6.93555 1.01666,-3.712726 3.02119,-7.75003 3.98243,-8.548828 0.66662,-0.553961 1.7986,-0.970702 3.02344,-1.175782 z"
           id="path2809-6"
           sodipodi:nodetypes="ssscccssccccccssssscsssssscccccsssscccsscc" />
      </g>
      <g
         id="layer1-09"
         inkscape:label="body"
         style="display:inline">
        <g
           id="path1615-5"
           transform="translate(70.804316,21.279929)">
          <path
             style="color:#000000;fill:#000000;stroke:#000000;stroke-width:0;stroke-miterlimit:4;stroke-dasharray:none;stroke-opacity:1;paint-order:stroke markers fill"
             d="m 89.356223,124.22257 c -3.555022,-5.50021 -4.379596,-7.64883 -4.383496,-11.42224 l -0.002,-1.84841 0.691777,-3.36506 c 1.321941,-6.43038 2.661665,-12.866132 3.471239,-16.675139 0.447837,-2.107076 0.802397,-3.866147 0.787907,-3.909045 0,0 1.904714,-13.938014 6.855032,-18.051773 2.67024,-2.218994 6.908868,-2.798469 10.249558,-1.852997 3.44697,0.975551 6.88978,3.76631 8.00512,7.170621 1.7636,5.382963 -2.60178,16.231708 -4.25249,24.281076 -1.39689,6.811677 -4.81516,20.242827 -4.77922,20.305457 z"
             id="path2811-7" />
        </g>
      </g>
      <g
         id="layer9-8"
         inkscape:label="front arm"
         style="display:inline">
        <g
           id="g7284"
           inkscape:transform-center-x="16.237856"
           inkscape:transform-center-y="31.981781"
           transform="rotate(-8.0134311,289.95863,-427.65366)">
          <g
             id="path17967-1"
             inkscape:transform-center-x="18.25625"
             inkscape:transform-center-y="28.178125">
            <path
               style="color:#000000;fill:#ffffff;-inkscape-stroke:none;paint-order:stroke markers fill"
               d="M 89.814453,66.509761 C 77.959535,70.945209 73.630176,104.71105 71.184358,117.55136 l 8.56955,5.53458 c 1.035758,-2.05185 1.087837,-3.59589 3.839844,-19.73828 0.325702,-1.91042 0.630639,-3.671254 0.857422,-4.962899 0.05483,-0.312301 0.08794,-0.491746 0.132812,-0.744141 0.247512,-0.19847 2.311973,-2.250201 2.632606,-2.503648 z"
               id="path6189"
               sodipodi:nodetypes="cccssccc" />
            <path
               style="color:#000000;fill:#000000;stroke-width:8;-inkscape-stroke:none;paint-order:stroke markers fill"
               d="m 93.238617,85.978047 c -0.0452,-0.133926 -12.248141,9.289142 -12.326891,9.518811 -0.0399,0.116533 -0.607137,3.347067 -1.260414,7.178892 -2.751295,16.13822 -3.061292,17.8013 -3.468619,18.60822 -1.033864,2.04809 -3.838789,3.0237 -6.309123,2.19444 -2.375286,-0.79736 -3.534258,-2.46537 -3.534258,-5.08656 0,-1.22622 4.028826,-28.165246 4.353218,-29.10811 0.545495,-1.585495 1.422964,-2.831973 2.592098,-3.68216 0.37692,-0.274095 4.893063,-4.071445 10.035863,-8.438556 9.845606,-8.360567 9.989753,-8.473394 12.166721,-9.523388 1.909742,-0.921111 1.897482,-0.919566 7.630548,-0.961042 z"
               id="path6191-3" />
          </g>
        </g>
      </g>
      <g
         id="layer8-1"
         inkscape:label="head"
         style="display:inline">
        <path
           style="display:inline;opacity:1;fill:#000000;fill-opacity:1;stroke-width:0.0947904"
           d="m 180.93739,83.118679 c -8.7332,-1.111928 -14.44453,-8.986468 -12.61099,-17.387475 1.81015,-8.293843 10.57545,-13.234346 18.63018,-10.500787 5.79046,1.965124 9.71601,7.454548 9.71601,13.58668 0,6.859978 -4.795,12.697392 -11.56442,14.078475 -0.96983,0.197862 -3.36341,0.325902 -4.17078,0.223107 z"
           id="path15969-8" />
      </g>
    </g>
  </g>
  <g
     inkscape:groupmode="layer"
     id="layer4"
     inkscape:label="j path"
     style="display:inline">
    <path
       style="fill:none;stroke:#000000;stroke-width:0.264583px;stroke-linecap:butt;stroke-linejoin:miter;stroke-opacity:1"
       d="M 49.159794,100.19072 Z"
       id="path8940" />
    <path
       style="fill:none;stroke:#fcc82f;stroke-width:30;stroke-linecap:butt;stroke-linejoin:miter;stroke-miterlimit:4;stroke-dasharray:none;stroke-opacity:1"
       d="m 98.922443,126.58366 -0.05106,5.5758 C 96.070389,162.1536 57.076263,180.8859 26.536084,149.5433"
       id="path9316"
       sodipodi:nodetypes="ccc" />
  </g>
</svg>
