<?xml version="1.0" encoding="UTF-8" standalone="no"?>
<!-- Created with Inkscape (http://www.inkscape.org/) -->

<svg
   width="8in"
   height="8in"
   viewBox="0 0 203.2 203.2"
   version="1.1"
   id="svg6138"
   inkscape:version="1.1 (c68e22c387, 2021-05-23)"
   sodipodi:docname="jwalk_logo_animation_f3.svg"
   xmlns:inkscape="http://www.inkscape.org/namespaces/inkscape"
   xmlns:sodipodi="http://sodipodi.sourceforge.net/DTD/sodipodi-0.dtd"
   xmlns="http://www.w3.org/2000/svg"
   xmlns:svg="http://www.w3.org/2000/svg">
  <sodipodi:namedview
     id="namedview6140"
     pagecolor="#ffffff"
     bordercolor="#666666"
     borderopacity="1.0"
     inkscape:pageshadow="2"
     inkscape:pageopacity="0.0"
     inkscape:pagecheckerboard="true"
     inkscape:document-units="mm"
     showgrid="false"
     inkscape:zoom="1"
     inkscape:cx="230.5"
     inkscape:cy="307"
     inkscape:window-width="1788"
     inkscape:window-height="1368"
     inkscape:window-x="1081"
     inkscape:window-y="1080"
     inkscape:window-maximized="0"
     inkscape:current-layer="g1907"
     units="in"
     width="8in" />
  <defs
     id="defs6135" />
  <g
     inkscape:groupmode="layer"
     id="g1907"
     inkscape:label="j path copy"
     style="display:inline">
    <path
       style="fill:none;stroke:#000000;stroke-width:0.264583px;stroke-linecap:butt;stroke-linejoin:miter;stroke-opacity:1"
       d="M 49.159794,100.19072 Z"
       id="path1903" />
    <path
       style="fill:none;stroke:#fcc82f;stroke-width:30;stroke-linecap:butt;stroke-linejoin:miter;stroke-miterlimit:4;stroke-dasharray:none;stroke-opacity:1"
       d="M 99.510305,22.665335 98.87138,132.15946 C 96.070389,162.1536 57.076263,180.8859 26.536084,149.5433"
       id="path1905"
       sodipodi:nodetypes="ccc" />
  </g>
  <g
     inkscape:groupmode="layer"
     id="layer5"
     inkscape:label="guy walking 3"
     style="display:inline">
    <g
       id="g6743"
       transform="translate(-46.293843,-15.823843)">
      <g
         id="layer6"
         inkscape:label="back leg"
         style="display:inline">
        <path
           style="display:inline;opacity:1;fill:#000000;fill-opacity:1;stroke-width:0.0947904"
           d="m 194.22385,195.10648 c -1.00008,0.90986 -2.74274,1.60314 -4.21842,1.67819 -2.70905,0.1378 -4.61811,-1.25936 -6.09085,-4.4576 l -6.54881,-26.19919 -13.98073,-19.68263 c -0.006,-0.0479 4.24248,0.16642 9.44078,0.4762 l 7.77335,-8.27569 9.33591,24.53428 c 0.4393,1.85345 1.18066,4.7917 2.65996,10.54217 2.35905,9.17026 2.946,11.79909 3.22136,14.42773 0.35064,3.34727 -0.18181,5.67307 -1.59255,6.95654 z"
           id="path15962"
           inkscape:transform-center-x="-15.668516"
           inkscape:transform-center-y="41.316991"
           sodipodi:nodetypes="sscccsccsss" />
      </g>
      <g
         id="layer10"
         inkscape:label="back arm"
         style="display:inline">
        <path
           style="display:inline;opacity:1;fill:#000000;fill-opacity:1;stroke-width:0.0947904"
           d="m 183.07145,79.319235 c 1.38953,2.315463 1.28256,5.11851 -0.44227,11.589489 -1.2887,4.834707 -4.77297,18.876756 -5.39905,21.758836 l -0.15249,0.70196 3.16253,6.90027 c 1.73939,3.79514 4.05583,8.84773 5.14765,11.22797 2.11613,4.61326 2.23631,4.95643 2.23186,6.37257 -0.0105,3.34027 -2.57054,5.79472 -5.4089,5.18579 -1.63022,-0.34974 -3.43787,-1.88029 -4.86283,-4.11737 -0.45581,-0.71558 -4.28249,-8.24316 -7.07814,-13.9236 -4.04378,-8.21641 -3.60679,-7.99462 -3.82752,-12.27486 -0.28877,-5.59943 1.94679,-11.05404 3.32876,-16.487927 1.14711,-4.510445 4.11105,-13.343112 4.11105,-13.343112 z"
           id="path19215"
           sodipodi:nodetypes="csscssssssaacc"
           inkscape:transform-center-x="5.0703502"
           inkscape:transform-center-y="31.601113" />
      </g>
      <g
         id="g1155"
         inkscape:label="front leg"
         style="display:inline;opacity:1">
        <g
           id="path1153"
           inkscape:transform-center-x="5.0797616"
           inkscape:transform-center-y="42.748759"
           transform="rotate(36.448905,124.54954,242.88292)">
          <path
             style="color:#000000;fill:#ffffff;-inkscape-stroke:none;paint-order:stroke markers fill"
             d="m 107.69727,113.80859 -3.08594,0.99414 -21.603518,6.9668 2.830079,4.37891 c 0.770055,1.1914 4.864053,7.59909 9.02539,14.12695 15.847409,24.85974 22.405929,35.04465 24.820309,38.25781 2.92812,3.89685 5.92298,6.56431 9.73047,7.25 0.24598,0.0443 0.47209,-0.0338 0.71485,-0.01 2.22062,0.21991 4.32791,-0.27077 6.33398,-1.2461 2.69636,-1.31095 4.81766,-3.76097 5.57031,-6.61132 0.75265,-2.85036 0.30449,-5.8503 -0.87304,-8.80665 -0.33392,-0.83833 -0.82917,-1.83739 -3.87891,-6.86914 -3.04974,-5.03175 -8.84963,-14.4794 -20.19922,-32.96289 -2.14477,-3.49289 -4.09791,-6.67555 -5.51758,-8.98828 -0.70983,-1.15636 -1.28565,-2.09438 -1.68554,-2.74609 -0.19995,-0.32586 -0.35679,-0.58086 -0.46289,-0.75391 -0.0458,-0.0748 -0.0789,-0.12658 -0.10547,-0.16992 -0.08,-0.13952 -0.0121,-0.0216 -0.0156,-0.0273 -4e-4,-6.6e-4 4e-4,-0.001 0,-0.002 z m -3.62305,9.57227 c 0.23762,0.38714 0.38927,0.63337 0.67187,1.09375 1.41996,2.31319 3.3746,5.49513 5.51954,8.98828 11.3494,18.48319 17.15371,27.94096 20.17382,32.92383 3.02011,4.98286 3.06033,5.10932 3.28907,5.68359 0.73575,1.84719 0.74665,3.12949 0.56835,3.80469 -0.17829,0.6752 -0.37807,0.99322 -1.33203,1.45703 -1.17034,0.56901 -2.06831,0.58974 -2.13281,0.57813 -0.939,-0.16911 -2.33903,-0.97044 -4.75195,-4.18164 -1.58307,-2.10682 -8.63278,-12.90905 -24.4707,-37.75391 -2.87529,-4.51044 -4.502931,-7.05259 -6.250005,-9.7832 z"
             id="path7015" />
          <path
             style="color:#000000;fill:#000000;stroke:#ffffff;stroke-width:8;stroke-opacity:1;-inkscape-stroke:none;paint-order:stroke markers fill"
             d="m 105.36036,117.68455 c -0.002,-0.94044 4.02341,6.70007 8.31312,13.68612 22.69902,36.96671 23.20789,37.8063 23.77054,39.21891 1.91329,4.80354 0.91992,8.56551 -2.7304,10.34027 -1.69786,0.82548 -3.30992,1.14751 -4.59022,0.91694 h 1e-4 c -2.37325,-0.4274 -4.82272,-1.98635 -7.24152,-5.71626 l -24.646273,-38.00566 -3.149479,-6.17924 z"
             id="path7017"
             sodipodi:nodetypes="csssccsccc" />
        </g>
      </g>
      <g
         id="layer2"
         inkscape:label="body stroke"
         style="display:inline">
        <path
           style="color:#000000;display:inline;fill:#ffffff;-inkscape-stroke:none;paint-order:stroke markers fill"
           d="m 181.89618,75.589132 c -3.61655,-0.225391 -7.33831,0.736828 -10.34375,3.234375 -5.82345,33.480093 -25.10399,64.194133 16.45599,50.958163 1.2822,-5.85549 2.85794,-11.85835 4.02046,-17.47965 0.75699,-3.69135 2.24872,-8.40902 3.37304,-12.992184 1.12432,-4.583162 2.19507,-8.962941 0.76172,-13.337891 -1.67221,-5.104033 -6.018,-8.443599 -10.7168,-9.773437 -1.15145,-0.32588 -2.34526,-0.534245 -3.55078,-0.609375 z m -2.20703,8.210937 c 1.22484,-0.205079 2.5423,-0.198006 3.58008,0.0957 2.19514,0.621262 4.7345,2.861824 5.29297,4.566406 0.33025,1.008008 0.10046,4.744075 -0.92969,8.943359 -1.03015,4.199286 -2.54574,8.931056 -3.43945,13.289066 -0.67339,3.28367 -1.87545,8.34092 -2.89649,12.54297 -0.51051,2.10103 -0.97636,3.99322 -1.31445,5.3711 -0.008,0.0327 -0.0117,0.046 -0.0195,0.0781 l -11.44336,3.69141 c -1.58734,-2.67365 -2.21234,-4.21085 -2.21484,-6.63281 l -0.002,-1.43946 0.60937,-2.96484 c 1.3206,-6.42388 2.66114,-12.85788 3.4668,-16.64845 0.22635,-1.06497 0.42923,-2.04246 0.57617,-2.77148 0.0735,-0.36451 0.13138,-0.66343 0.17578,-0.90039 0.0222,-0.11848 0.0398,-0.21693 0.0586,-0.33203 0.008,-0.0491 0.0164,-0.11059 0.0273,-0.19532 l 0.004,-0.0156 c 0.001,-0.008 8.8e-4,-0.009 0.002,-0.0176 0.004,-0.0306 0.44909,-3.240384 1.46094,-6.935542 1.01665,-3.712726 3.02118,-7.75003 3.98242,-8.548828 0.66662,-0.553961 1.7986,-0.970702 3.02344,-1.175782 z"
           id="path2809"
           sodipodi:nodetypes="scccssssscsssssscccccsssscccsscc" />
      </g>
      <g
         id="layer1"
         inkscape:label="body"
         style="display:inline">
        <g
           id="path1615"
           transform="translate(77.33173,12.948507)">
          <path
             style="color:#000000;fill:#000000;stroke-width:8;-inkscape-stroke:none;paint-order:stroke markers fill"
             d="m 89.356223,124.22257 c -3.555022,-5.50021 -4.379596,-7.64883 -4.383496,-11.42224 l -0.002,-1.84841 0.691777,-3.36506 c 1.321941,-6.43038 2.661665,-12.866132 3.471239,-16.675139 0.447837,-2.107076 0.802397,-3.866147 0.787907,-3.909045 0,0 1.904714,-13.938014 6.855032,-18.051773 2.67024,-2.218994 6.908868,-2.798469 10.249558,-1.852997 3.44697,0.975551 6.88978,3.76631 8.00512,7.170621 1.7636,5.382963 -2.60178,16.231708 -4.25249,24.281076 -1.39689,6.811677 -4.81516,20.242827 -4.77922,20.305457 z"
             id="path2811" />
        </g>
      </g>
      <g
         id="layer9"
         inkscape:label="front arm"
         style="display:inline">
        <g
           id="path17967"
           inkscape:transform-center-x="-4.6971183"
           inkscape:transform-center-y="31.199205"
           transform="rotate(-43.385102,155.958,-21.817297)">
          <path
             style="color:#000000;fill:#ffffff;-inkscape-stroke:none;paint-order:stroke markers fill"
             d="m 96.86521,71.34745 c -1.677204,1.312815 -9.774227,1.20091 -15.267753,3.942033 -3.01345,1.503632 -5.734766,3.60082 -7.546726,5.124388 -0.905979,0.761784 -1.662337,1.395224 -2.208984,1.849609 -0.546647,0.454385 -1.186766,0.942796 -0.800781,0.662109 -1.903231,1.384018 -3.365822,2.83337 -4.13081,5.056828 -0.289697,0.842022 -0.194414,0.730517 -0.25,1.023437 -0.05559,0.29292 -0.11839,0.649343 -0.191406,1.078125 -0.146031,0.857565 -0.331862,2.000159 -0.544922,3.347657 -0.42612,2.694994 -0.961188,6.197601 -1.486328,9.708994 -0.52514,3.51138 -1.038605,7.02968 -1.423828,9.75976 -0.192612,1.36503 -0.352495,2.53118 -0.466797,3.41406 -0.05715,0.44144 -0.102672,0.81041 -0.136719,1.11524 -0.03405,0.30482 -0.07031,0.33866 -0.07031,0.96289 0,1.90013 0.451752,3.86899 1.591797,5.50976 1.140045,1.64077 2.870609,2.76318 4.669921,3.36719 4.2336,1.42116 9.037212,0.007 11.152344,-4.18359 1.035758,-2.05185 1.087837,-3.59589 3.839844,-19.73828 0.325702,-1.91042 0.630639,-3.671254 0.857422,-4.962899 0.05483,-0.312301 0.08794,-0.491746 0.132812,-0.744141 0.247512,-0.19847 2.311973,-2.250201 2.632606,-2.503648 z M 80.384766,90.755859 c -0.587629,0.464497 -1.082335,0.859297 -1.457032,1.166016 -0.187348,0.153359 -0.34059,0.280108 -0.492187,0.412109 -0.0758,0.066 -0.145572,0.127926 -0.261719,0.240235 -0.05807,0.05615 -0.124978,0.117948 -0.25,0.259765 -0.125021,0.141818 -0.321294,-0.01607 -0.794922,1.365235 l -0.002,0.002 c -0.225951,0.659918 -0.128083,0.462185 -0.142578,0.53125 -0.01449,0.06906 -0.02638,0.127492 -0.03906,0.193359 -0.02537,0.131734 -0.05595,0.289361 -0.0918,0.486328 -0.07169,0.393936 -0.166186,0.93449 -0.28125,1.589844 -0.23013,1.310709 -0.535707,3.08056 -0.863282,5.00196 -2.750578,16.13401 -3.31876,17.91457 -3.097656,17.47656 0.04741,-0.0939 -0.75778,0.44243 -1.464844,0.20508 -0.575971,-0.19335 -0.613223,-0.30174 -0.646484,-0.34961 -0.03326,-0.0479 -0.160156,-0.22231 -0.160156,-0.94336 0,0.47095 -0.0056,0.14879 0.01953,-0.0762 0.02513,-0.22497 0.06745,-0.56025 0.121094,-0.97461 0.107292,-0.82874 0.264919,-1.97656 0.455078,-3.32422 0.380318,-2.69532 0.891447,-6.20081 1.414062,-9.69531 0.522615,-3.49451 1.056044,-6.981065 1.476563,-9.640632 0.210259,-1.329784 0.392911,-2.454938 0.529297,-3.25586 0.06619,-0.388726 0.121206,-0.693985 0.160156,-0.90039 0.319656,-0.883778 0.701203,-1.384112 1.121094,-1.689454 0.574444,-0.417733 0.642134,-0.507337 1.208984,-0.978515 0.56685,-0.471179 1.331122,-1.111203 2.244141,-1.878906 6.64705,-2.941087 4.264057,2.44115 1.294971,4.777326 z"
             id="path6189-3"
             sodipodi:nodetypes="cssscssssssssssscssccccssssccsssscssscsssssscsscc" />
          <path
             style="color:#000000;fill:#000000;stroke-width:8;-inkscape-stroke:none;paint-order:stroke markers fill"
             d="m 92.259111,86.847343 c -0.0452,-0.133926 -12.248141,9.289142 -12.326891,9.518811 -0.0399,0.116533 -0.607137,3.347067 -1.260414,7.178896 -2.751295,16.13822 -3.061292,17.8013 -3.468619,18.60822 -1.033864,2.04809 -3.838789,3.0237 -6.309123,2.19444 -2.375286,-0.79736 -3.534258,-2.46537 -3.534258,-5.08656 0,-1.22622 4.028826,-28.16525 4.353218,-29.108114 0.545495,-1.585495 1.422964,-2.831973 2.592098,-3.68216 0.37692,-0.274095 4.893063,-4.071445 10.035863,-8.438556 9.845606,-8.360567 9.989753,-8.473394 12.166721,-9.523388 1.909742,-0.921111 1.897482,-0.919566 7.630544,-0.961042 z"
             id="path6191" />
        </g>
      </g>
      <g
         id="layer8"
         inkscape:label="head"
         style="display:inline">
        <path
           style="display:inline;opacity:1;fill:#000000;fill-opacity:1;stroke-width:0.0947904"
           d="m 187.4648,74.787257 c -8.7332,-1.111928 -14.44452,-8.986468 -12.61099,-17.387475 1.81016,-8.293843 10.57545,-13.234346 18.63018,-10.500787 5.79046,1.965124 9.71601,7.454548 9.71601,13.58668 0,6.859978 -4.795,12.697392 -11.56442,14.078475 -0.96983,0.197862 -3.36341,0.325902 -4.17078,0.223107 z"
           id="path15969" />
      </g>
    </g>
  </g>
  <g
     inkscape:groupmode="layer"
     id="layer4"
     inkscape:label="j path"
     style="display:inline">
    <path
       style="fill:none;stroke:#000000;stroke-width:0.264583px;stroke-linecap:butt;stroke-linejoin:miter;stroke-opacity:1"
       d="M 49.159794,100.19072 Z"
       id="path8940" />
    <path
       style="fill:none;stroke:#fcc82f;stroke-width:30;stroke-linecap:butt;stroke-linejoin:miter;stroke-miterlimit:4;stroke-dasharray:none;stroke-opacity:1"
       d="m 98.922443,126.58366 -0.05106,5.5758 C 96.070389,162.1536 57.076263,180.8859 26.536084,149.5433"
       id="path9316"
       sodipodi:nodetypes="ccc" />
  </g>
</svg>
